<?xml version="1.0" encoding="utf-8"?>
<!-- Generator: Adobe Illustrator 23.1.1, SVG Export Plug-In . SVG Version: 6.00 Build 0)  -->
<svg version="1.1" id="Layer_1" xmlns="http://www.w3.org/2000/svg" xmlns:xlink="http://www.w3.org/1999/xlink" x="0px" y="0px"
	 viewBox="0 0 1843.9 612.2" style="enable-background:new 0 0 1843.9 612.2;" xml:space="preserve">
<style type="text/css">
	.st0{fill:#FFFFFF;}
</style>
<g>
	<g>
		<path class="st0" d="M399.7,288.2c43.2,0,90.8-22,122-56L468.1,175c-18.4,19.6-43.6,32-63.6,32c-33.6,0-58-27.2-58-64.8
			c0-37.2,24.4-64,58-64c21.6,0,46.8,14.8,63.6,37.6l53.6-63.6C492.9,21,446.1,1,403.3,1c-88,0-152,60-152,142.4
			C251.3,227,313.7,288.2,399.7,288.2z M932.1,244.6h105.2l14,39.6h98.8l-114-280.4h-95.2L822.5,284.2h95.2L932.1,244.6z
			 M985.7,96.2l28.8,82h-58.4L985.7,96.2z M1436.9,288.2c40,0,91.6-15.2,122.8-36V136.6h-79.6v65.2c-13.6,5.6-27.2,9.2-36.8,9.2
			c-36.4,0-63.2-28-63.2-66.8c0-38,26.4-66,62.4-66c23.2,0,50.4,11.6,69.2,29.6l52.4-63.6c-30-26.4-77.6-43.2-121.2-43.2
			c-91.6,0-158,60.4-158,143.2C1284.9,227.4,1348.9,288.2,1436.9,288.2z M0,608.2h92.8V517h124.4v-70.4H92.8v-48.4h132.8v-70.4H0
			V608.2z M1840.8,241.8l-30.2-27.9c7.1-11.5,13.4-23.8,17.9-37.6c1.1-3.7,0-8.2-3.4-10.4l-55.5-39.9c14.5-13.4,25-30.9,25-54.4
			c0-43.6-41-71.5-91.6-71.5c-52.9,0-89.8,28.7-89.8,76c0,17.5,4.1,33.9,15.3,52.9c-23.1,14.9-44,36.5-44,70.8
			c0,52.1,45.8,87.5,104.3,87.5c24.6,0,47.7-6.7,68.5-19l28.7,27.6c3.4,3.4,8.9,3.4,12.7,0l42.1-40.6
			C1845.3,251.1,1844.5,245.1,1840.8,241.8z M1792.4,276l-27.6-26.1c-3.4-3-8.2-3.4-11.5-1.1c-19.4,13-41,19.7-64.4,19.7
			c-51.8,0-85.7-29.4-85.7-68.9c0-28.7,18.3-45.1,43.2-59.6c4.1-2.2,6.3-8.2,3-13.4c-13.4-20.1-17.5-34.3-17.5-50.7
			c0-35.4,25-57.4,71.1-57.4c45.4,0,73,23.5,73,52.9c0,19.7-8.9,33.2-23.8,44.7c-8.6,6.7-19.4,13-30.2,18.6
			c-1.1,0.4-11.2,5.2-2.6,14.5c7.8,8.6,17.1,18.6,27.9,29.4c0.4,0.4,8.9,9.3,14.9-2.6c4.1-7.8,7.8-16.8,10.4-25.3l35.8,25.7
			c-4.8,12.3-10.4,23.1-17.5,33.5c-2.6,3.7-1.9,8.9,1.5,11.9l28.7,26.4L1792.4,276z M1757.4,135.6c-1.9,7.1-3.7,14.2-6.3,20.5
			c-3.4-3.7-6-6.7-9.7-10.4C1746.6,142.7,1752.1,139.3,1757.4,135.6z M633.3,211.4h34.8l33.6,72.8h104.8L751.3,193
			c28.8-17.6,44.4-48,44.4-88.8c0-64-43.6-100.4-119.6-100.4H540.5v280.4h92.8V211.4z M633.3,74.2h42.8c20,0,31.6,12,31.6,32.8
			c0,21.6-11.6,34-31.6,34h-42.8V74.2z M1258.9,3.8h-92.8v280.4h92.8V3.8z M1680.6,165.4c-3.4-3.7-9.3-3.7-12.7-0.7
			c-8.6,7.1-15.3,16.4-15.3,28.7c0,22.3,18.3,36.1,39.5,36.1c9.3,0,18.6-2.2,27.2-6.7c0,0,12.7-4.8,2.6-14.9
			C1705.6,191.5,1692.2,177.7,1680.6,165.4z M1692.2,210.8c-13.8,0-20.9-7.1-20.9-17.5c0-3,0.7-5.2,2.6-8.2
			c7.4,7.8,14.9,16,24.2,25.3C1696.6,210.8,1694,210.8,1692.2,210.8z M1252,394.6c24.4,0,68,17.2,96.4,32.8L1382,357
			c-31.6-20-77.6-33.2-122-33.2c-72.8,0-120,35.2-120,91.2c0,98.4,145.2,74.4,145.2,110.8c0,10-8.8,14.4-22.4,14.4
			c-28.4,0-78-19.6-106.8-43.6l-34.4,69.6c37.2,28.4,91.6,44.8,140.4,44.8c63.2,0,118-27.6,118-90c0-101.6-145.2-79.6-145.2-114.8
			C1234.8,397.8,1241.6,394.6,1252,394.6z M1700.7,111.7c14.5-8.9,28.7-20.9,28.7-39.5c0-14.9-11.2-26.1-25.7-26.1
			c-16.8,0-25.7,14.5-25.7,29.4c0,10.4,2.6,21.2,9.7,33.2C1690.3,113.2,1696.3,114.4,1700.7,111.7z M1703.7,64.8
			c4.8,0,7.1,2.2,7.1,7.5c0,6.3-3,11.5-11.2,17.9c-2.2-5.2-3-10.1-3-14.5C1696.6,66.7,1699.6,64.8,1703.7,64.8z M955.2,503h131.2
			v-70.4H955.2v-34.4h144.4v-70.4H862.4v280.4h240.8v-70.4h-148V503z M827.6,428.2c0-64-43.6-100.4-119.6-100.4H572.4v280.4h92.8
			v-72.8H700l33.6,72.8h104.8L783.2,517C812,499.4,827.6,469,827.6,428.2z M708,465h-42.8v-66.8H708c20,0,31.6,12,31.6,32.8
			C739.6,452.6,728,465,708,465z M0.2,284.4c0,0,70,0,133.8,0c53.3,0,102.2,0,102.2,0L118.2,3.9L0.2,284.4z M176.7,261.1l-142.1,0.2
			l47.4-112.8l25.6,10.8l6.5-14.5l16.5,7.1L176.7,261.1z M108.2,129.4l-6.5,15l-15.1-6.6l19-45.2l18.5,43.9L108.2,129.4z M392.4,325
			c-89.2,0-154,59.6-154,142.8c0,83.6,64.8,144.4,154,144.4s154-61.2,154-144.4C546.4,385,481.6,325,392.4,325z M393.6,535
			c-32,0-60-28.4-60-66.8c0-38.4,27.6-66,60-66c32,0,57.6,27.6,57.6,66C451.2,506.6,425.6,535,393.6,535z M1722.7,327.9l-96.5,229.4
			l61-0.2v51h46l-0.1-51l86-0.1L1722.7,327.9z M1655.8,545.8l54.4-129.3l54.6,129.4L1655.8,545.8z M1638.4,327.8H1386V401h79.6
			v207.2h92.8V401h80V327.8z"/>
	</g>
</g>
</svg>
