<?xml version="1.0" encoding="utf-8"?>
<!-- Generator: Adobe Illustrator 23.1.1, SVG Export Plug-In . SVG Version: 6.00 Build 0)  -->
<svg version="1.1" id="Layer_1" xmlns="http://www.w3.org/2000/svg" xmlns:xlink="http://www.w3.org/1999/xlink" x="0px" y="0px"
	 viewBox="0 0 100 100" style="enable-background:new 0 0 100 100;" xml:space="preserve">
<style type="text/css">
	.st0{fill-rule:evenodd;clip-rule:evenodd;fill:#FFFFFF;}
</style>
<path class="st0" d="M99.7,70.6c-0.2,5.3-1.1,9-2.3,12.1c-1.3,3.3-3,6.1-5.8,8.9c-2.8,2.8-5.6,4.5-8.9,5.8
	c-3.2,1.2-6.8,2.1-12.1,2.3c-5.3,0.2-7,0.3-20.6,0.3s-15.3-0.1-20.6-0.3c-5.3-0.2-9-1.1-12.1-2.3c-3.3-1.3-6.1-3-8.9-5.8
	c-2.8-2.8-4.5-5.6-5.8-8.9c-1.2-3.2-2.1-6.8-2.3-12.1C0.1,65.3,0,63.6,0,50s0.1-15.3,0.3-20.6c0.2-5.3,1.1-9,2.3-12.1
	c1.3-3.3,3-6.1,5.8-8.9c2.8-2.8,5.6-4.5,8.9-5.8c3.2-1.2,6.8-2.1,12.1-2.3C34.7,0.1,36.4,0,50,0s15.3,0.1,20.6,0.3
	c5.3,0.2,9,1.1,12.1,2.3c3.3,1.3,6.1,3,8.9,5.8s4.5,5.6,5.8,8.9c1.2,3.2,2.1,6.8,2.3,12.1c0.2,5.3,0.3,7,0.3,20.6
	S99.9,65.3,99.7,70.6z M90.7,29.8c-0.2-4.9-1-7.5-1.7-9.3c-0.9-2.3-2-4-3.7-5.7c-1.7-1.7-3.4-2.8-5.7-3.7c-1.8-0.7-4.4-1.5-9.3-1.7
	C64.9,9.1,63.4,9,50,9S35.1,9.1,29.8,9.3c-4.9,0.2-7.5,1-9.3,1.7c-2.3,0.9-4,2-5.7,3.7c-1.7,1.7-2.8,3.4-3.7,5.7
	c-0.7,1.8-1.5,4.4-1.7,9.3C9.1,35.1,9,36.6,9,50s0.1,14.9,0.3,20.2c0.2,4.9,1,7.5,1.7,9.3c0.9,2.3,2,4,3.7,5.7
	c1.7,1.7,3.4,2.8,5.7,3.7c1.8,0.7,4.4,1.5,9.3,1.7C35.1,90.9,36.6,91,50,91s14.9-0.1,20.2-0.3c4.9-0.2,7.5-1,9.3-1.7
	c2.3-0.9,4-2,5.7-3.7c1.7-1.7,2.8-3.4,3.7-5.7c0.7-1.8,1.5-4.4,1.7-9.3C90.9,64.9,91,63.4,91,50S90.9,35.1,90.7,29.8z M76.7,29.3
	c-3.3,0-6-2.7-6-6s2.7-6,6-6c3.3,0,6,2.7,6,6S80,29.3,76.7,29.3z M50,75.7c-14.2,0-25.7-11.5-25.7-25.7S35.8,24.3,50,24.3
	S75.7,35.8,75.7,50S64.2,75.7,50,75.7z M50,33.3c-9.2,0-16.7,7.5-16.7,16.7c0,9.2,7.5,16.7,16.7,16.7S66.7,59.2,66.7,50
	C66.7,40.8,59.2,33.3,50,33.3z"/>
</svg>
