<?xml version="1.0" encoding="utf-8"?>
<!-- Generator: Adobe Illustrator 24.1.2, SVG Export Plug-In . SVG Version: 6.00 Build 0)  -->
<svg version="1.1" id="Layer_1" xmlns="http://www.w3.org/2000/svg" xmlns:xlink="http://www.w3.org/1999/xlink" x="0px" y="0px"
	 viewBox="0 0 100 100" style="enable-background:new 0 0 100 100;" xml:space="preserve">
<style type="text/css">
	.st0{fill:#FFFFFF;}
</style>
<g>
	<path class="st0" d="M49.9-0.1c14.2,0,28.4,0,42.7,0c3.8,0,6.9,2.7,7.4,6C100,6.3,100,6.7,100,7c0,28.6,0,57.2,0,85.8
		c0,3.8-3,6.9-6.8,7.1c-0.2,0-0.5,0-0.7,0c-28.4,0-56.7,0-85.1,0c-3.6,0-6.3-1.9-7.2-5.1c-0.2-0.7-0.3-1.4-0.3-2.1
		c0-28.5,0-57,0-85.6C-0.2,3.1,2.9,0,7-0.1c3.4,0,6.9,0,10.3,0C28.1-0.1,39-0.1,49.9-0.1z M53.2,43.9c0-2,0-3.7,0-5.4
		c0-0.8-0.2-1.1-1.1-1.1c-4.1,0-8.2,0.1-12.3,0c-1,0-1.2,0.3-1.2,1.2c0,15.2,0,30.4,0,45.6c0,0.9,0.2,1.3,1.2,1.2
		c4.2,0,8.5,0,12.7,0c0.9,0,1.2-0.3,1.2-1.2c0-7.7,0-15.3,0-23c0-1.6,0.1-3.2,0.4-4.7c0.6-3.2,2.1-5.9,5.5-6.7
		c1.1-0.3,2.2-0.3,3.3-0.3c3.5,0,5.7,1.7,6.5,5.1c0.5,2,0.6,4,0.6,6c0.1,7.9,0,15.7,0,23.6c0,0.9,0.2,1.3,1.2,1.3
		c4.2,0,8.5,0,12.7,0c0.9,0,1.2-0.3,1.2-1.2c0-8.5,0-16.9,0-25.4c0-3.5-0.2-6.9-1-10.3c-1.1-4.6-3.2-8.6-7.8-10.6
		c-4.5-2-9.3-2.4-14.1-1.2C58.6,37.8,55.6,40.2,53.2,43.9z M29.6,61.3c0-7.6,0-15.2,0-22.9c0-0.8-0.2-1.1-1.1-1.1
		c-4.3,0-8.6,0-12.9,0c-0.8,0-1.1,0.2-1.1,1.1c0,15.3,0,30.6,0,45.9c0,0.9,0.3,1.1,1.1,1.1c4.2,0,8.5,0,12.7,0c1.2,0,1.3,0,1.3-1.2
		C29.6,76.5,29.6,68.9,29.6,61.3z M22.1,30.9c4.8,0,8.7-3.8,8.7-8.7c0-4.8-3.9-8.7-8.7-8.7c-4.8,0-8.7,3.9-8.7,8.8
		C13.4,27.1,17.2,30.9,22.1,30.9z"/>
</g>
</svg>
